<mxfile host="app.diagrams.net" modified="2022-02-10T04:46:25.255Z" agent="5.0 (Macintosh; Intel Mac OS X 10_15_7) AppleWebKit/537.36 (KHTML, like Gecko) Chrome/97.0.4692.99 Safari/537.36" etag="hV-gpMTublOEK91FTlN_" version="16.5.3" type="github">
  <diagram id="7zytc4X0rFM4Li2k81rj" name="Page-1">
    <mxGraphModel dx="1319" dy="636" grid="1" gridSize="10" guides="1" tooltips="1" connect="1" arrows="1" fold="1" page="1" pageScale="1" pageWidth="1100" pageHeight="850" math="0" shadow="0">
      <root>
        <mxCell id="0" />
        <mxCell id="1" parent="0" />
        <mxCell id="agzaKm7U5vjEBMNBCcOe-2" value="" style="endArrow=none;html=1;rounded=0;exitX=0.433;exitY=-0.025;exitDx=0;exitDy=0;exitPerimeter=0;" edge="1" parent="1">
          <mxGeometry width="50" height="50" relative="1" as="geometry">
            <mxPoint x="368.97" y="204" as="sourcePoint" />
            <mxPoint x="370" y="145" as="targetPoint" />
          </mxGeometry>
        </mxCell>
        <mxCell id="agzaKm7U5vjEBMNBCcOe-3" value="" style="endArrow=none;html=1;rounded=0;" edge="1" parent="1">
          <mxGeometry width="50" height="50" relative="1" as="geometry">
            <mxPoint x="370" y="185" as="sourcePoint" />
            <mxPoint x="410" y="185" as="targetPoint" />
          </mxGeometry>
        </mxCell>
        <mxCell id="agzaKm7U5vjEBMNBCcOe-4" value="title" style="ellipse;whiteSpace=wrap;html=1;" vertex="1" parent="1">
          <mxGeometry x="270" y="171" width="61" height="30" as="geometry" />
        </mxCell>
        <mxCell id="agzaKm7U5vjEBMNBCcOe-5" value="year&lt;span style=&quot;color: rgba(0 , 0 , 0 , 0) ; font-family: monospace ; font-size: 0px&quot;&gt;%3CmxGraphModel%3E%3Croot%3E%3CmxCell%20id%3D%220%22%2F%3E%3CmxCell%20id%3D%221%22%20parent%3D%220%22%2F%3E%3CmxCell%20id%3D%222%22%20value%3D%22title%22%20style%3D%22ellipse%3BwhiteSpace%3Dwrap%3Bhtml%3D1%3B%22%20vertex%3D%221%22%20parent%3D%221%22%3E%3CmxGeometry%20x%3D%22520%22%20y%3D%22210%22%20width%3D%22120%22%20height%3D%2280%22%20as%3D%22geometry%22%2F%3E%3C%2FmxCell%3E%3C%2Froot%3E%3C%2FmxGraphModel%3E&lt;/span&gt;" style="ellipse;whiteSpace=wrap;html=1;" vertex="1" parent="1">
          <mxGeometry x="271" y="130" width="60" height="30" as="geometry" />
        </mxCell>
        <mxCell id="agzaKm7U5vjEBMNBCcOe-6" value="length" style="ellipse;whiteSpace=wrap;html=1;" vertex="1" parent="1">
          <mxGeometry x="410" y="135" width="70" height="30" as="geometry" />
        </mxCell>
        <mxCell id="agzaKm7U5vjEBMNBCcOe-7" value="genre" style="ellipse;whiteSpace=wrap;html=1;" vertex="1" parent="1">
          <mxGeometry x="412" y="171" width="70" height="30" as="geometry" />
        </mxCell>
        <mxCell id="agzaKm7U5vjEBMNBCcOe-8" value="" style="endArrow=none;html=1;rounded=0;" edge="1" parent="1">
          <mxGeometry width="50" height="50" relative="1" as="geometry">
            <mxPoint x="370" y="145" as="sourcePoint" />
            <mxPoint x="410" y="145" as="targetPoint" />
          </mxGeometry>
        </mxCell>
        <mxCell id="agzaKm7U5vjEBMNBCcOe-9" value="" style="endArrow=none;html=1;rounded=0;" edge="1" parent="1">
          <mxGeometry width="50" height="50" relative="1" as="geometry">
            <mxPoint x="330" y="145" as="sourcePoint" />
            <mxPoint x="370" y="145" as="targetPoint" />
          </mxGeometry>
        </mxCell>
        <mxCell id="agzaKm7U5vjEBMNBCcOe-11" value="" style="endArrow=none;html=1;rounded=0;" edge="1" parent="1">
          <mxGeometry width="50" height="50" relative="1" as="geometry">
            <mxPoint x="330" y="185" as="sourcePoint" />
            <mxPoint x="370" y="185" as="targetPoint" />
          </mxGeometry>
        </mxCell>
        <mxCell id="agzaKm7U5vjEBMNBCcOe-12" value="artist" style="rounded=0;whiteSpace=wrap;html=1;" vertex="1" parent="1">
          <mxGeometry x="680" y="175" width="90" height="40" as="geometry" />
        </mxCell>
        <mxCell id="agzaKm7U5vjEBMNBCcOe-13" value="" style="endArrow=none;html=1;rounded=0;exitX=0.433;exitY=-0.025;exitDx=0;exitDy=0;exitPerimeter=0;" edge="1" parent="1" source="agzaKm7U5vjEBMNBCcOe-12">
          <mxGeometry width="50" height="50" relative="1" as="geometry">
            <mxPoint x="710" y="165" as="sourcePoint" />
            <mxPoint x="720" y="115" as="targetPoint" />
          </mxGeometry>
        </mxCell>
        <mxCell id="agzaKm7U5vjEBMNBCcOe-14" value="" style="endArrow=none;html=1;rounded=0;" edge="1" parent="1">
          <mxGeometry width="50" height="50" relative="1" as="geometry">
            <mxPoint x="720" y="155" as="sourcePoint" />
            <mxPoint x="760" y="155" as="targetPoint" />
          </mxGeometry>
        </mxCell>
        <mxCell id="agzaKm7U5vjEBMNBCcOe-15" value="DOB" style="ellipse;whiteSpace=wrap;html=1;" vertex="1" parent="1">
          <mxGeometry x="620" y="141" width="61" height="30" as="geometry" />
        </mxCell>
        <mxCell id="agzaKm7U5vjEBMNBCcOe-16" value="name" style="ellipse;whiteSpace=wrap;html=1;" vertex="1" parent="1">
          <mxGeometry x="621" y="100" width="60" height="30" as="geometry" />
        </mxCell>
        <mxCell id="agzaKm7U5vjEBMNBCcOe-17" value="URL" style="ellipse;whiteSpace=wrap;html=1;" vertex="1" parent="1">
          <mxGeometry x="760" y="105" width="70" height="30" as="geometry" />
        </mxCell>
        <mxCell id="agzaKm7U5vjEBMNBCcOe-18" value="&lt;u&gt;artistID&lt;/u&gt;" style="ellipse;whiteSpace=wrap;html=1;" vertex="1" parent="1">
          <mxGeometry x="762" y="141" width="70" height="30" as="geometry" />
        </mxCell>
        <mxCell id="agzaKm7U5vjEBMNBCcOe-19" value="" style="endArrow=none;html=1;rounded=0;" edge="1" parent="1">
          <mxGeometry width="50" height="50" relative="1" as="geometry">
            <mxPoint x="720" y="115" as="sourcePoint" />
            <mxPoint x="760" y="115" as="targetPoint" />
          </mxGeometry>
        </mxCell>
        <mxCell id="agzaKm7U5vjEBMNBCcOe-20" value="" style="endArrow=none;html=1;rounded=0;" edge="1" parent="1">
          <mxGeometry width="50" height="50" relative="1" as="geometry">
            <mxPoint x="680" y="115" as="sourcePoint" />
            <mxPoint x="720" y="115" as="targetPoint" />
          </mxGeometry>
        </mxCell>
        <mxCell id="agzaKm7U5vjEBMNBCcOe-21" value="" style="endArrow=none;html=1;rounded=0;" edge="1" parent="1">
          <mxGeometry width="50" height="50" relative="1" as="geometry">
            <mxPoint x="680" y="155" as="sourcePoint" />
            <mxPoint x="720" y="155" as="targetPoint" />
          </mxGeometry>
        </mxCell>
        <mxCell id="agzaKm7U5vjEBMNBCcOe-22" value="song" style="shape=ext;margin=3;double=1;whiteSpace=wrap;html=1;align=center;" vertex="1" parent="1">
          <mxGeometry x="320" y="205" width="100" height="36" as="geometry" />
        </mxCell>
        <mxCell id="agzaKm7U5vjEBMNBCcOe-26" value="belongs to&amp;nbsp;" style="shape=rhombus;double=1;perimeter=rhombusPerimeter;whiteSpace=wrap;html=1;align=center;" vertex="1" parent="1">
          <mxGeometry x="510" y="226" width="100" height="50" as="geometry" />
        </mxCell>
        <mxCell id="agzaKm7U5vjEBMNBCcOe-28" value="" style="endArrow=none;html=1;rounded=0;exitX=1;exitY=0.5;exitDx=0;exitDy=0;entryX=0;entryY=1;entryDx=0;entryDy=0;" edge="1" parent="1" source="agzaKm7U5vjEBMNBCcOe-22" target="agzaKm7U5vjEBMNBCcOe-26">
          <mxGeometry width="50" height="50" relative="1" as="geometry">
            <mxPoint x="620" y="350" as="sourcePoint" />
            <mxPoint x="560" y="270" as="targetPoint" />
          </mxGeometry>
        </mxCell>
        <mxCell id="agzaKm7U5vjEBMNBCcOe-29" value="" style="endArrow=none;html=1;rounded=0;exitX=1;exitY=0;exitDx=0;exitDy=0;entryX=0.433;entryY=0.975;entryDx=0;entryDy=0;entryPerimeter=0;" edge="1" parent="1" source="agzaKm7U5vjEBMNBCcOe-26" target="agzaKm7U5vjEBMNBCcOe-12">
          <mxGeometry width="50" height="50" relative="1" as="geometry">
            <mxPoint x="690" y="268.5" as="sourcePoint" />
            <mxPoint x="795" y="256" as="targetPoint" />
          </mxGeometry>
        </mxCell>
      </root>
    </mxGraphModel>
  </diagram>
</mxfile>
